<svg xmlns="http://www.w3.org/2000/svg" viewBox="0 0 1280 720" width="1280" height="720" role="img" aria-label="Department management system cover">
  <defs>
    <linearGradient id="bg" x1="0" y1="0" x2="1" y2="1">
      <stop offset="0" stop-color="#0a1424"/>
      <stop offset="0.55" stop-color="#070c16"/>
      <stop offset="1" stop-color="#04060a"/>
    </linearGradient>
    <radialGradient id="halo" cx="0.5" cy="0.5" r="0.5">
      <stop offset="0" stop-color="#38bdf8" stop-opacity="0.5"/>
      <stop offset="0.55" stop-color="#38bdf8" stop-opacity="0.12"/>
      <stop offset="1" stop-color="#38bdf8" stop-opacity="0"/>
    </radialGradient>
    <linearGradient id="edge" x1="0" y1="0" x2="1" y2="1">
      <stop offset="0" stop-color="#7dd3fc"/>
      <stop offset="1" stop-color="#0e7490"/>
    </linearGradient>
    <pattern id="grid" width="48" height="48" patternUnits="userSpaceOnUse">
      <path d="M48 0H0V48" fill="none" stroke="#ffffff" stroke-opacity="0.045" stroke-width="1"/>
    </pattern>
    <pattern id="dots" width="22" height="22" patternUnits="userSpaceOnUse">
      <circle cx="2" cy="2" r="1.4" fill="#38bdf8" fill-opacity="0.22"/>
    </pattern>
  </defs>

  <rect width="1280" height="720" fill="url(#bg)"/>
  <rect width="1280" height="720" fill="url(#grid)"/>
  <ellipse cx="900" cy="250" rx="520" ry="420" fill="url(#halo)"/>
  <ellipse cx="180" cy="640" rx="420" ry="300" fill="url(#halo)" opacity="0.5"/>
  <rect width="1280" height="720" fill="url(#dots)" opacity="0.35"/>

  <g opacity="0.9">
    <rect x="72" y="88" width="1136" height="544" rx="26" fill="#070b12" stroke="#1b2430"/>
    <rect x="72" y="88" width="1136" height="60" rx="26" fill="#0b1220"/>
    <rect x="72" y="122" width="1136" height="26" fill="#0b1220"/>
    <line x1="72" y1="148" x2="1208" y2="148" stroke="#1b2430"/>
    <circle cx="106" cy="118" r="6" fill="#fb7185"/>
    <circle cx="128" cy="118" r="6" fill="#fbbf24"/>
    <circle cx="150" cy="118" r="6" fill="#34d399"/>
    <rect x="196" y="106" width="188" height="24" rx="8" fill="#111c2b"/>
    <text x="212" y="123" font-family="ui-monospace, Menlo, Consolas, monospace" font-size="13" fill="#7dd3fc" letter-spacing="1.5">/departments</text>
  </g>

  <g stroke="#1e2c3d" stroke-width="2" fill="none">
    <path d="M640 214V262"/>
    <path d="M300 262H980"/>
    <path d="M300 262V310"/>
    <path d="M640 262V310"/>
    <path d="M980 262V310"/>
    <path d="M300 366V414"/>
    <path d="M640 366V414"/>
    <path d="M980 366V414"/>
  </g>

  <g>
    <rect x="500" y="166" width="280" height="48" rx="14" fill="url(#edge)" fill-opacity="0.22" stroke="#38bdf8" stroke-opacity="0.75"/>
    <circle cx="528" cy="190" r="9" fill="#38bdf8"/>
    <text x="548" y="196" font-family="system-ui, Segoe UI, sans-serif" font-size="17" font-weight="700" fill="#e0f2fe">Faculty Directory</text>
  </g>

  <g>
    <rect x="180" y="310" width="240" height="56" rx="14" fill="#0c1420" stroke="#243447"/>
    <circle cx="208" cy="338" r="9" fill="#0ea5e9"/>
    <text x="228" y="344" font-family="system-ui, Segoe UI, sans-serif" font-size="16" font-weight="600" fill="#cfe8fb">Department</text>
    <rect x="520" y="310" width="240" height="56" rx="14" fill="#0c1420" stroke="#243447"/>
    <circle cx="548" cy="338" r="9" fill="#38bdf8"/>
    <text x="568" y="344" font-family="system-ui, Segoe UI, sans-serif" font-size="16" font-weight="600" fill="#cfe8fb">Department</text>
    <rect x="860" y="310" width="240" height="56" rx="14" fill="#0c1420" stroke="#243447"/>
    <circle cx="888" cy="338" r="9" fill="#0284c7"/>
    <text x="908" y="344" font-family="system-ui, Segoe UI, sans-serif" font-size="16" font-weight="600" fill="#cfe8fb">Department</text>
  </g>

  <g>
    <rect x="180" y="414" width="240" height="52" rx="12" fill="#0a1119" stroke="#1b2430"/>
    <rect x="204" y="432" width="96" height="8" rx="4" fill="#1e3a4f"/>
    <rect x="204" y="432" width="62" height="8" rx="4" fill="#38bdf8"/>
    <rect x="520" y="414" width="240" height="52" rx="12" fill="#0a1119" stroke="#1b2430"/>
    <rect x="544" y="432" width="96" height="8" rx="4" fill="#1e3a4f"/>
    <rect x="544" y="432" width="48" height="8" rx="4" fill="#0ea5e9"/>
    <rect x="860" y="414" width="240" height="52" rx="12" fill="#0a1119" stroke="#1b2430"/>
    <rect x="884" y="432" width="96" height="8" rx="4" fill="#1e3a4f"/>
    <rect x="884" y="432" width="78" height="8" rx="4" fill="#7dd3fc"/>
  </g>

  <g>
    <rect x="72" y="556" width="700" height="76" rx="18" fill="#060a11" stroke="#1b2430"/>
    <text x="104" y="590" font-family="ui-monospace, Menlo, Consolas, monospace" font-size="13" letter-spacing="3" fill="#64748b">ACADEMIC ADMINISTRATION</text>
    <text x="104" y="616" font-family="system-ui, Segoe UI, sans-serif" font-size="24" font-weight="700" fill="#f8fafc">Department Management System</text>
  </g>
  <rect x="1064" y="592" width="144" height="4" rx="2" fill="#1b2430"/>
  <rect x="1064" y="592" width="104" height="4" rx="2" fill="#38bdf8"/>
</svg>