<svg xmlns="http://www.w3.org/2000/svg" viewBox="0 0 1280 720" width="1280" height="720" role="img" aria-label="SMS reminder service for UDOM cover">
  <defs>
    <linearGradient id="bg" x1="0" y1="0" x2="1" y2="1">
      <stop offset="0" stop-color="#0a1a18"/>
      <stop offset="0.55" stop-color="#071010"/>
      <stop offset="1" stop-color="#04060a"/>
    </linearGradient>
    <radialGradient id="halo" cx="0.5" cy="0.5" r="0.5">
      <stop offset="0" stop-color="#34d399" stop-opacity="0.45"/>
      <stop offset="0.55" stop-color="#34d399" stop-opacity="0.1"/>
      <stop offset="1" stop-color="#34d399" stop-opacity="0"/>
    </radialGradient>
    <linearGradient id="bubble" x1="0" y1="0" x2="1" y2="1">
      <stop offset="0" stop-color="#10b981"/>
      <stop offset="1" stop-color="#065f46"/>
    </linearGradient>
    <pattern id="grid" width="48" height="48" patternUnits="userSpaceOnUse">
      <path d="M48 0H0V48" fill="none" stroke="#ffffff" stroke-opacity="0.045" stroke-width="1"/>
    </pattern>
  </defs>

  <rect width="1280" height="720" fill="url(#bg)"/>
  <rect width="1280" height="720" fill="url(#grid)"/>
  <ellipse cx="330" cy="240" rx="500" ry="420" fill="url(#halo)"/>
  <ellipse cx="1050" cy="620" rx="420" ry="300" fill="url(#halo)" opacity="0.5"/>

  <g>
    <rect x="120" y="150" width="292" height="80" rx="22" fill="#0c1a17" stroke="#1f4038"/>
    <rect x="152" y="178" width="180" height="10" rx="5" fill="#164e41"/>
    <rect x="152" y="198" width="120" height="10" rx="5" fill="#134038"/>
    <path d="M152 230L136 250L176 230Z" fill="#0c1a17" stroke="#1f4038" stroke-width="2"/>
    <path d="M286 216l16 16 30-32" fill="none" stroke="#34d399" stroke-width="5" stroke-linecap="round" stroke-linejoin="round"/>
  </g>

  <g>
    <rect x="470" y="118" width="330" height="96" rx="24" fill="url(#bubble)" fill-opacity="0.9"/>
    <rect x="500" y="146" width="200" height="11" rx="5.5" fill="#022c22" fill-opacity="0.75"/>
    <rect x="500" y="168" width="266" height="11" rx="5.5" fill="#022c22" fill-opacity="0.5"/>
    <path d="M780 214L806 234L768 214Z" fill="#0f766e"/>
  </g>

  <g>
    <rect x="250" y="284" width="300" height="88" rx="22" fill="#0c1a17" stroke="#1f4038"/>
    <rect x="282" y="312" width="196" height="10" rx="5" fill="#164e41"/>
    <rect x="282" y="332" width="132" height="10" rx="5" fill="#134038"/>
    <path d="M282 372L266 392L306 372Z" fill="#0c1a17" stroke="#1f4038" stroke-width="2"/>
    <path d="M486 334l16 16 30-32" fill="none" stroke="#34d399" stroke-width="5" stroke-linecap="round" stroke-linejoin="round"/>
  </g>

  <g>
    <rect x="640" y="300" width="360" height="96" rx="24" fill="url(#bubble)" fill-opacity="0.9"/>
    <rect x="672" y="330" width="180" height="11" rx="5.5" fill="#022c22" fill-opacity="0.75"/>
    <rect x="672" y="352" width="248" height="11" rx="5.5" fill="#022c22" fill-opacity="0.5"/>
    <path d="M962 396L988 416L950 396Z" fill="#0f766e"/>
  </g>

  <g>
    <rect x="72" y="470" width="1136" height="176" rx="26" fill="#060b0a" stroke="#1b2430"/>
    <text x="104" y="516" font-family="ui-monospace, Menlo, Consolas, monospace" font-size="13" letter-spacing="3" fill="#64748b">DELIVERY STATUS</text>
    <g>
      <rect x="104" y="542" width="250" height="72" rx="16" fill="#0a1614" stroke="#1f4038"/>
      <circle cx="136" cy="578" r="13" fill="#065f46"/>
      <path d="M130 578l5 5 9-10" fill="none" stroke="#6ee7b7" stroke-width="4" stroke-linecap="round" stroke-linejoin="round"/>
      <text x="164" y="574" font-family="system-ui, Segoe UI, sans-serif" font-size="15" font-weight="700" fill="#d1fae5">Delivered</text>
      <text x="164" y="596" font-family="ui-monospace, Menlo, Consolas, monospace" font-size="12" fill="#4b7c6e">retry queue clear</text>
    </g>
    <g>
      <rect x="374" y="542" width="250" height="72" rx="16" fill="#0a1614" stroke="#1f4038"/>
      <circle cx="406" cy="578" r="13" fill="#065f46"/>
      <path d="M400 578l5 5 9-10" fill="none" stroke="#6ee7b7" stroke-width="4" stroke-linecap="round" stroke-linejoin="round"/>
      <text x="434" y="574" font-family="system-ui, Segoe UI, sans-serif" font-size="15" font-weight="700" fill="#d1fae5">Delivered</text>
      <text x="434" y="596" font-family="ui-monospace, Menlo, Consolas, monospace" font-size="12" fill="#4b7c6e">gateway confirmed</text>
    </g>
    <g>
      <rect x="644" y="542" width="250" height="72" rx="16" fill="#0a1614" stroke="#1f4038"/>
      <circle cx="676" cy="578" r="13" fill="#78350f"/>
      <path d="M676 570v9" stroke="#fcd34d" stroke-width="4" stroke-linecap="round"/>
      <circle cx="676" cy="586" r="2.2" fill="#fcd34d"/>
      <text x="704" y="574" font-family="system-ui, Segoe UI, sans-serif" font-size="15" font-weight="700" fill="#d1fae5">Retrying</text>
      <text x="704" y="596" font-family="ui-monospace, Menlo, Consolas, monospace" font-size="12" fill="#7c6a45">attempt 2 of 3</text>
    </g>
    <g>
      <rect x="914" y="542" width="264" height="72" rx="16" fill="#0a1614" stroke="#1f4038"/>
      <circle cx="946" cy="578" r="13" fill="#065f46"/>
      <path d="M940 578l5 5 9-10" fill="none" stroke="#6ee7b7" stroke-width="4" stroke-linecap="round" stroke-linejoin="round"/>
      <text x="974" y="574" font-family="system-ui, Segoe UI, sans-serif" font-size="15" font-weight="700" fill="#d1fae5">Scheduled</text>
      <text x="974" y="596" font-family="ui-monospace, Menlo, Consolas, monospace" font-size="12" fill="#4b7c6e">next window 18:00</text>
    </g>
  </g>

  <g>
    <text x="104" y="138" font-family="ui-monospace, Menlo, Consolas, monospace" font-size="13" letter-spacing="3" fill="#34d399">AUTOMATED SMS REMINDER</text>
    <text x="104" y="112" font-family="system-ui, Segoe UI, sans-serif" font-size="24" font-weight="700" fill="#f8fafc">UDOM Reminder Service</text>
  </g>
</svg>